<svg height="512" viewBox="0 0 74 74" width="512" xmlns="http://www.w3.org/2000/svg"><g id="line_color" data-name="line color"><rect fill="#e7aa6c" height="10.793" rx="1.116" width="66.718" x="3.641" y="20.627"/><path d="m70.36 21.74v8.56a1.118 1.118 0 0 1 -1.12 1.12h-3.2a1.116 1.116 0 0 0 1.11-1.12v-8.56a1.114 1.114 0 0 0 -1.11-1.11h3.2a1.116 1.116 0 0 1 1.12 1.11z" fill="#d09865"/><path d="m16.02 65.01h-2.42a2.643 2.643 0 0 1 -2.625-2.334l-3.675-31.256h59.4l-3.676 31.256a2.643 2.643 0 0 1 -2.624 2.334h-2.42" fill="#e7aa6c"/><path d="m10.867 61.75.109.926a2.643 2.643 0 0 0 2.624 2.334h46.8a2.643 2.643 0 0 0 2.625-2.334l.109-.926z" fill="#d09865"/><path d="m63.58 31.42-3.675 31.256a2.643 2.643 0 0 1 -2.625 2.334h2.92a2.643 2.643 0 0 0 2.625-2.334l3.675-31.256z" fill="#d09865"/><path d="m46 65.51h-18a.5.5 0 0 1 0-1h18a.5.5 0 0 1 0 1z" fill="#323c6b"/><path d="m71.25 71.5h-68.5a.5.5 0 0 1 0-1h68.5a.5.5 0 0 1 0 1z" fill="#323c6b"/><circle cx="22.007" cy="65.012" fill="#707583" r="5.988"/><path d="m22.007 71.5a6.488 6.488 0 1 1 6.493-6.488 6.5 6.5 0 0 1 -6.493 6.488zm0-11.977a5.488 5.488 0 1 0 5.493 5.489 5.494 5.494 0 0 0 -5.493-5.489z" fill="#323c6b"/><circle cx="22.007" cy="65.012" fill="#bbbbcd" r="3.043"/><path d="m22.007 68.555a3.543 3.543 0 1 1 3.543-3.543 3.547 3.547 0 0 1 -3.543 3.543zm0-6.086a2.543 2.543 0 1 0 2.543 2.543 2.546 2.546 0 0 0 -2.543-2.543z" fill="#323c6b"/><circle cx="51.993" cy="65.012" fill="#707583" r="5.988"/><path d="m51.993 71.5a6.488 6.488 0 1 1 6.488-6.488 6.5 6.5 0 0 1 -6.488 6.488zm0-11.977a5.488 5.488 0 1 0 5.488 5.488 5.494 5.494 0 0 0 -5.488-5.488z" fill="#323c6b"/><path d="m66.612 20.621 2.277-4.884-5.895-12.737-20.256 3.048-2.085 6.728-12.737 7.845z" fill="#bbbbcd"/><path d="m62.994 3-20.256 3.048-.685 2.209 18.538-2.789 5.896 12.737-1.127 2.415h1.252l2.277-4.883z" fill="#9297ab"/><path d="m27.916 20.621 12.737-7.845.753-2.432.002.001-13.491-5.18-9.203 9.84-9.36-2.394-2.982 8.016z" fill="#bbbbcd"/><path d="m9.979 15.361 9.36 2.394 9.203-9.84 12.169 4.672.695-2.243.002.001-13.491-5.18-9.203 9.84-9.36-2.394-2.982 8.016h1.648z" fill="#9297ab"/><g fill="#323c6b"><path d="m68.188 45.583a.487.487 0 0 1 -.06 0 .5.5 0 0 1 -.437-.556l.107-.906a.5.5 0 1 1 .992.118l-.107.906a.5.5 0 0 1 -.495.438z"/><path d="m66.5 59.333a.5.5 0 0 1 -.5-.559l1.31-11.146a.5.5 0 1 1 .993.117l-1.31 11.146a.5.5 0 0 1 -.493.442z"/><path d="m34.375 4.93a.5.5 0 0 1 -.175-.03l-.625-.24a.5.5 0 1 1 .357-.934l.625.24a.5.5 0 0 1 -.179.967z"/><path d="m23.042 6.487a.5.5 0 0 1 -.365-.841l4.065-4.346a.5.5 0 0 1 .545-.125l4.388 1.685a.5.5 0 0 1 -.359.934l-4.074-1.567-3.835 4.1a.5.5 0 0 1 -.365.16z"/></g><circle cx="51.993" cy="65.012" fill="#bbbbcd" r="3.043"/><g fill="#323c6b"><path d="m51.993 68.555a3.543 3.543 0 1 1 3.543-3.543 3.547 3.547 0 0 1 -3.543 3.543zm0-6.086a2.543 2.543 0 1 0 2.543 2.543 2.546 2.546 0 0 0 -2.543-2.543z"/><path d="m55.75 21.121a.5.5 0 0 1 -.472-.333l-2.125-6a.5.5 0 0 1 .114-.517l2.237-2.29-12.961-5.473a.5.5 0 1 1 .389-.921l13.637 5.763a.5.5 0 0 1 .163.81l-2.532 2.591 2.021 5.7a.5.5 0 0 1 -.472.667z"/><path d="m62.125 13.4a.5.5 0 0 1 -.093-.009l-5.75-1.091a.5.5 0 1 1 .186-.982l5.471 1.033 3.388-3.834a.5.5 0 0 1 .75.662l-3.577 4.048a.5.5 0 0 1 -.375.173z"/><path d="m43.326 21.121a.493.493 0 0 1 -.2-.042.5.5 0 0 1 -.258-.658l2.452-5.614-4.82-1.555a.5.5 0 0 1 .307-.952l5.348 1.724a.5.5 0 0 1 .3.676l-2.674 6.121a.5.5 0 0 1 -.455.3z"/><path d="m31.5 18.916a.5.5 0 0 1 -.158-.026l-7.605-2.541a.5.5 0 0 1 -.191-.832l4.488-4.393-4.276-1.17a.5.5 0 1 1 .264-.965l5.11 1.4a.5.5 0 0 1 .218.84l-4.525 4.43 6.829 2.282a.5.5 0 0 1 -.158.974z"/><path d="m60.4 65.51h-2.42a.5.5 0 0 1 0-1h2.42a2.142 2.142 0 0 0 2.128-1.892l3.61-30.7h-58.276l3.609 30.7a2.143 2.143 0 0 0 2.129 1.892h2.42a.5.5 0 0 1 0 1h-2.42a3.144 3.144 0 0 1 -3.122-2.776l-3.678-31.255a.5.5 0 0 1 .122-.391.5.5 0 0 1 .378-.168h59.4a.5.5 0 0 1 .374.168.5.5 0 0 1 .122.391l-3.675 31.255a3.143 3.143 0 0 1 -3.121 2.776z"/><path d="m66.611 21.121h-38.7a.5.5 0 0 1 -.262-.926l12.581-7.746 2.03-6.549a.5.5 0 0 1 .4-.347l20.259-3.048a.506.506 0 0 1 .528.285l5.9 12.736a.5.5 0 0 1 0 .421l-2.278 4.884a.5.5 0 0 1 -.458.29zm-36.93-1h36.612l2.045-4.385-5.638-12.186-19.578 2.95-1.992 6.424a.5.5 0 0 1 -.215.278z"/><path d="m6.372 21.127a.5.5 0 0 1 -.469-.674l2.982-8.016a.5.5 0 0 1 .593-.31l9.073 2.321 9-9.625a.5.5 0 0 1 .549-.123l13.49 5.18a.5.5 0 0 1 .3.617.3.3 0 0 1 -.015.04l-.74 2.389a.5.5 0 0 1 -.216.278l-12.74 7.842a.5.5 0 0 1 -.263.074zm3.294-7.92-2.574 6.92 20.683-.007 12.455-7.671.56-1.806-12.737-4.891-8.973 9.595a.5.5 0 0 1 -.489.143z"/></g><path d="m15.286 28.2a.746.746 0 0 1 0-1.491h1.046a.746.746 0 0 1 0 1.491z" fill="#fff"/><path d="m19.943 28.272a.746.746 0 0 1 0-1.491l8.5-.038a.746.746 0 0 1 0 1.491z" fill="#fff"/><path d="m69.243 31.92h-64.486a1.617 1.617 0 0 1 -1.615-1.62v-8.557a1.617 1.617 0 0 1 1.615-1.616h64.486a1.617 1.617 0 0 1 1.615 1.616v8.557a1.617 1.617 0 0 1 -1.615 1.62zm-64.486-10.793a.617.617 0 0 0 -.615.616v8.557a.617.617 0 0 0 .615.616h64.486a.617.617 0 0 0 .615-.616v-8.557a.617.617 0 0 0 -.615-.616z" fill="#323c6b"/></g></svg>